<svg xmlns="http://www.w3.org/2000/svg" xmlns:xlink="http://www.w3.org/1999/xlink" viewBox="0 0 122 125" version="1.1" x="0px" y="0px">
    <title>Combined Shape</title>
    <desc>Created with Sketch.</desc>
    <g stroke="none" stroke-width="1" fill="none" fill-rule="evenodd">
        <g transform="translate(-2380.000000, -11137.000000)" fill="#000000" fill-rule="nonzero">
            <path d="M2440.97561,11237 C2439.7561,11237 2438.53034,11236.6438 2437.46717,11235.925 C2436.06003,11234.9813 2403.02063,11212.6125 2392.77673,11202.3563 C2381.32583,11190.9125 2380,11178.75 2380,11170.5938 C2380,11152.0688 2395.07817,11137 2413.61476,11137 C2424.8843,11137 2434.86553,11142.5688 2440.97561,11151.1 C2447.08569,11142.5688 2457.06692,11137 2468.33646,11137 C2486.87305,11137 2501.95122,11152.0688 2501.95122,11170.5938 C2501.95122,11178.75 2500.62539,11190.9125 2489.17449,11202.3563 C2478.91182,11212.6125 2445.87867,11234.9813 2444.48405,11235.925 C2443.42088,11236.6438 2442.19512,11237 2440.97561,11237 Z M2397.14752,11176.8207 C2396.86136,11175.766 2396.70773,11175.1746 2396.68662,11175.0465 C2395.14923,11165.7106 2400.78099,11156.5585 2409.9688,11153.8822 C2410.01664,11153.8683 2410.50957,11153.7352 2411.44756,11153.4831 L2411.44755,11153.483 C2413.26927,11152.9933 2414.34973,11151.1202 2413.86149,11149.2981 C2413.37343,11147.4766 2411.50119,11146.3957 2409.67971,11146.8837 C2409.67887,11146.8839 2409.67807,11146.8842 2409.67723,11146.8844 C2408.71162,11147.1439 2408.20138,11147.2815 2408.14648,11147.2973 C2395.44017,11150.9489 2387.76486,11163.6702 2390.11885,11176.5638 C2390.13558,11176.6554 2390.30952,11177.3164 2390.64075,11178.5468 C2391.12581,11180.3487 2392.97879,11181.4171 2394.78126,11180.9341 C2396.56853,11180.4552 2397.6292,11178.6181 2397.1503,11176.8309 C2397.14939,11176.8275 2397.14845,11176.8241 2397.14754,11176.8207 L2397.14752,11176.8207 Z"/>
        </g>
    </g>
</svg>