<svg xmlns="http://www.w3.org/2000/svg" viewBox="0 0 100 125" x="0px" y="0px">
    <g data-name="Layer 2">
        <path d="M95,21a1.25,1.25,0,0,0-1.13-1C85.19,19.32,66.1,29.13,63,33.89a2.22,2.22,0,0,0-.33,2.32c.2.39.71,2.14-1.21,8.34a84.06,84.06,0,0,1-3.07,8.23,25.79,25.79,0,0,1-.47-3.12c3.24-4,1.46-10.75.82-12.77a1.28,1.28,0,0,0-.78-.81,1.25,1.25,0,0,0-1.11.14c-4.64,3.11-6.28,6.06-6.85,7.57l-2.08,0c-1.17-3.68-6.93-7.41-7-7.45a1.08,1.08,0,0,0-.93-.12,1.64,1.64,0,0,0-.9.95,14.41,14.41,0,0,0-.61,9.12,11.85,11.85,0,0,0,1.63,3.62,36.49,36.49,0,0,1-.46,3.76,71.89,71.89,0,0,1-2.69-7.92c-1.69-6.17-1.16-7.94-1-8.34a2.48,2.48,0,0,0-.4-2.53C34,32.49,29,28.71,23,25.51,19.77,23.78,11.7,19.8,6.17,20.19a1.28,1.28,0,0,0-.5,2.4c1.6.85,5.41,3.28,6.18,7.52.67,3.67-1.06,7.9-5.13,12.57a1.27,1.27,0,0,0-.16,1.44,1.25,1.25,0,0,0,1.28.66,9.63,9.63,0,0,1,7.61,2.09c2.86,2.5,4.33,7,4.38,13.42a1.25,1.25,0,0,0,.51,1,1.22,1.22,0,0,0,1.09.21c1.34-.39,13.15-3.62,16.84,1.63l.19.54a43.8,43.8,0,0,0,2.08,8.09c1.94,5.19,4.5,8,7.62,8.23h.14l.64,0H49c7-.58,10.19-14.4,10.66-16.63,3.69-5.22,14.82-2.22,16.08-1.86a1.21,1.21,0,0,0,1.09-.2,1.34,1.34,0,0,0,.51-1c.05-5.93,1.54-10.17,4.42-12.61,3.45-2.91,8-2.5,9.78-2.19a1.27,1.27,0,0,0,1.31-.63,1.3,1.3,0,0,0-.16-1.47c-4-4.55-5.64-8.78-5-12.55.8-4.66,4.92-7.44,6.65-8.41A1.27,1.27,0,0,0,95,21Zm-50.2,30.9a1.77,1.77,0,1,1,1.75-1.77A1.76,1.76,0,0,1,44.77,51.94Zm8.3,0a1.77,1.77,0,1,1,1.76-1.77A1.76,1.76,0,0,1,53.07,51.94Z"/>
    </g>
</svg>